<?xml version="1.0" standalone="no"?>
<!DOCTYPE svg PUBLIC "-//W3C//DTD SVG 20010904//EN"
 "http://www.w3.org/TR/2001/REC-SVG-20010904/DTD/svg10.dtd">
<svg version="1.0" xmlns="http://www.w3.org/2000/svg"
 width="512.000000pt" height="512.000000pt" viewBox="0 0 512.000000 512.000000"
 preserveAspectRatio="xMidYMid meet">
<metadata>
Created by potrace 1.11, written by Peter Selinger 2001-2013
</metadata>
<g transform="translate(0.000000,512.000000) scale(0.100000,-0.100000)"
fill="#000000" stroke="none">
<path d="M224 4872 c-95 -28 -168 -94 -204 -187 -18 -49 -19 -101 -19 -2126
-1 -1939 0 -2078 16 -2120 10 -24 21 -48 25 -54 5 -5 18 -23 30 -39 30 -40
114 -92 168 -103 27 -5 949 -9 2335 -8 1915 0 2297 3 2330 14 92 32 160 97
195 186 18 49 19 103 19 2116 1 2281 6 2122 -62 2211 -38 50 -96 91 -152 109
-61 20 -4615 21 -4681 1z m3416 -407 c45 -23 58 -64 56 -171 -2 -141 -27 -165
-173 -167 -71 0 -86 3 -117 24 -40 27 -49 55 -51 154 -1 109 22 154 89 173 46
12 162 5 196 -13z m534 -4 c42 -26 53 -65 51 -172 -3 -127 -32 -159 -146 -162
-101 -2 -147 10 -172 48 -20 30 -23 44 -21 132 1 110 14 143 62 162 63 24 180
20 226 -8z m527 2 c41 -24 52 -62 52 -171 l-1 -96 -36 -33 c-26 -24 -46 -33
-73 -34 -202 -5 -224 10 -229 156 -7 170 29 205 200 197 32 -1 71 -10 87 -19z
m49 -2268 l0 -1591 -2190 0 -2190 0 0 1591 0 1590 2190 0 2190 0 0 -1590z"/>
<path d="M2770 3219 c-64 -26 -76 -49 -176 -359 -52 -162 -99 -306 -104 -320
-5 -14 -52 -160 -105 -325 -53 -165 -102 -318 -110 -340 -12 -35 -124 -388
-144 -455 -4 -14 -4 -42 1 -64 28 -125 177 -168 270 -79 28 27 38 55 193 533
24 74 75 232 113 350 38 118 107 330 152 470 45 140 92 288 106 329 30 91 30
142 2 192 -36 64 -128 96 -198 68z"/>
<path d="M1959 2769 c-20 -5 -98 -38 -173 -74 -76 -36 -139 -65 -141 -65 -1 0
-54 -24 -116 -54 -63 -29 -136 -64 -164 -76 -27 -12 -108 -51 -180 -85 -106
-52 -134 -70 -153 -99 -31 -50 -32 -121 -1 -175 26 -47 58 -64 454 -246 114
-52 200 -93 300 -140 148 -70 191 -84 233 -74 135 30 178 200 71 282 -19 14
-124 67 -234 117 -299 138 -305 141 -305 146 0 2 24 15 53 28 28 13 77 35 107
49 30 14 127 59 215 100 196 92 220 114 220 210 0 46 -5 69 -20 89 -39 52
-108 79 -166 67z"/>
<path d="M3103 2769 c-56 -10 -88 -35 -113 -85 -49 -99 -8 -183 115 -239 22
-10 96 -44 164 -76 67 -33 125 -59 127 -59 8 0 174 -82 174 -86 0 -3 -19 -13
-42 -23 -192 -83 -485 -224 -507 -244 -116 -106 -20 -298 139 -277 15 2 118
47 305 135 106 50 195 92 310 145 264 121 289 136 313 179 25 44 31 107 14
152 -17 44 -64 78 -187 135 -66 31 -147 68 -180 84 -33 15 -118 55 -190 88
-71 33 -175 81 -230 107 -140 66 -163 73 -212 64z"/>
</g>
</svg>
